<svg width="688" height="427" viewBox="0 0 688 427" xmlns="http://www.w3.org/2000/svg" xmlns:xlink="http://www.w3.org/1999/xlink"><svg width="8" height="10" fill="none" viewBox="0 0 8 10" id="chevron" x="598" y="311" xmlns="http://www.w3.org/2000/svg"><path d="M3.621 5.27L3.794 5l-.173-.27L.914.5h3.612L7.406 5l-2.88 4.5H.914L3.62 5.27z" fill="#FF000A" stroke="#FF000A"/></svg><svg width="8" height="10" fill="none" viewBox="0 0 8 10" id="chevron-white" x="606" y="311" xmlns="http://www.w3.org/2000/svg"><path d="M3.621 5.27L3.794 5l-.173-.27L.914.5h3.612L7.406 5l-2.88 4.5H.914L3.62 5.27z" fill="#fff" stroke="#fff"/></svg><svg width="32" height="32" fill="none" viewBox="0 0 32 32" id="copy-link" x="36" y="391" xmlns="http://www.w3.org/2000/svg"><path d="M25.567 14.618l-5.113 5.113a1.328 1.328 0 01-2.285-.95v-1.62h-.166c-2.556-.173-10.08.69-11.966 8.839v-.518c.159-12.764 10.134-14.816 12.132-15.101V8.554a1.328 1.328 0 012.285-.943l5.113 5.114a1.327 1.327 0 010 1.893z" fill="#25394B"/></svg><svg fill="none" height="80" width="84" viewBox="0 0 84 80" id="download-big" y="311" xmlns="http://www.w3.org/2000/svg"><path d="M83.422 52.637V80H.577V52.637h10.26v17.087h62.326V52.637z" fill="#737373"/><path d="M63.678 31.97H52.2V0H31.8v31.94H20.322l21.677 27.61z" fill="#ff000a" opacity=".56"/></svg><svg viewBox="0 0 84 80" width="84" height="80" id="external-link-big" x="84" y="311" xmlns="http://www.w3.org/2000/svg"><path d="M34.7 16l7.8 8.4L19 46.1l13.8 15 23.5-21.7 7.8 8.4 5.6-34.7-35 2.9z" opacity=".56" fill="#ff000a"/><path d="M10.8 69.7h62.3V52.6h10.3V80H.6V0H28v10.3H10.9l-.1 59.4z" fill="#737373"/></svg><svg width="11" height="20" fill="none" viewBox="0 0 11 20" id="facebook" x="364" y="339" xmlns="http://www.w3.org/2000/svg"><path fill-rule="evenodd" clip-rule="evenodd" d="M.904 6.613h2.068V4.605c0-.887.022-2.253.666-3.1C4.316.61 5.248 0 6.848 0c2.608 0 3.707.372 3.707.372l-.517 3.063s-.862-.248-1.665-.248c-.805 0-1.525.288-1.525 1.091v2.335h3.297l-.23 2.993H6.848V20H2.972V9.606H.904V6.613z" fill="#fff"/></svg><svg width="18" height="36" fill="none" viewBox="0 0 18 36" id="facebook-dark" y="391" xmlns="http://www.w3.org/2000/svg"><path fill-rule="evenodd" clip-rule="evenodd" d="M4.46 35.314V18H.941v-5.74h3.52V8.79C4.46 4.105 5.86.73 10.985.73h6.098v5.728H12.79c-2.15 0-2.64 1.43-2.64 2.926v2.875h6.617L15.864 18H10.15v17.315H4.46z" fill="#25394B"/></svg><svg width="18" height="36" fill="none" viewBox="0 0 18 36" id="facebook-light" x="18" y="391" xmlns="http://www.w3.org/2000/svg"><path fill-rule="evenodd" clip-rule="evenodd" d="M4.46 35.314V18H.941v-5.74h3.52V8.79C4.46 4.105 5.86.73 10.985.73h6.098v5.728H12.79c-2.15 0-2.64 1.43-2.64 2.926v2.875h6.617L15.864 18H10.15v17.315H4.46z" fill="#ededed"/></svg><svg width="20" height="20" fill="none" viewBox="0 0 20 20" id="google-plus" x="375" y="339" xmlns="http://www.w3.org/2000/svg"><path fill-rule="evenodd" clip-rule="evenodd" d="M6.754 19.01c-2.379 0-4.096-1.504-4.096-3.313 0-1.772 2.131-3.246 4.509-3.22a5.18 5.18 0 011.542.247c1.288.898 2.215 1.404 2.476 2.427.05.208.076.42.076.638 0 1.809-1.164 3.221-4.507 3.221zm.624-10.6c-1.594-.048-3.112-1.786-3.387-3.88-.276-2.097.796-3.7 2.39-3.653C7.976.924 9.494 2.605 9.77 4.7c.275 2.096-.795 3.757-2.39 3.709zm3.31 3.103c-.56-.396-1.63-1.36-1.63-1.927 0-.664.19-.99 1.189-1.771 1.024-.8 1.748-1.927 1.748-3.235 0-1.558-.694-3.076-1.995-3.578h1.963L13.35 0H7.155c-2.776 0-5.39 2.104-5.39 4.539 0 2.49 1.893 4.501 4.718 4.501.197 0 .388-.004.575-.017-.184.35-.316.747-.316 1.156 0 .692.373 1.253.844 1.712-.357 0-.7.01-1.074.01-3.44 0-6.087 2.19-6.087 4.462 0 2.238 2.903 3.636 6.34 3.636 3.923 0 6.089-2.224 6.089-4.462 0-1.794-.53-2.868-2.166-4.025zm9.012-2.92h-2.412V6.178h-1.94V8.59h-2.412v1.94h2.412v2.412h1.94V10.53H19.7V8.59z" fill="#fff"/></svg><svg width="28" height="28" fill="none" viewBox="0 0 28 28" id="linkedin-dark" x="472" y="311" xmlns="http://www.w3.org/2000/svg"><path fill-rule="evenodd" clip-rule="evenodd" d="M5.885 27.823V9.524H.229v18.3h5.656zm0-24.785C5.85 1.401 4.76.154 2.987.154 1.213.154.055 1.4.055 3.038c0 1.602 1.125 2.885 2.864 2.885h.034c1.807 0 2.932-1.283 2.932-2.885zm9.227 24.785V17.397c0-.558.04-1.116.204-1.513.449-1.116 1.47-2.27 3.184-2.27 2.246 0 3.654 1.274 3.654 3.783v10.426h5.694V17.118c0-5.734-3.061-8.402-7.144-8.402-3.348 0-4.818 1.871-5.634 3.145l.041-2.447H9.427c.082 1.752 0 18.41 0 18.41h5.685z" fill="#25394B"/></svg><svg width="16" height="16" fill="none" viewBox="0 0 16 16" id="linkedin-small-dark" x="562" y="311" xmlns="http://www.w3.org/2000/svg"><path fill-rule="evenodd" clip-rule="evenodd" d="M3.671 15.372v-9.76H.655v9.76H3.67zm0-13.218C3.653 1.28 3.071.615 2.125.615 1.18.615.562 1.28.562 2.154c0 .854.6 1.538 1.527 1.538h.018c.964 0 1.564-.684 1.564-1.538zm4.921 13.218v-5.56c0-.298.022-.595.11-.808.238-.594.783-1.21 1.697-1.21 1.198 0 1.949.68 1.949 2.018v5.56h3.037v-5.71c0-3.057-1.633-4.48-3.81-4.48-1.786 0-2.57.998-3.005 1.677l.022-1.305H5.56c.044.934 0 9.818 0 9.818h3.032z" fill="#25394B"/></svg><svg width="10" height="13" fill="none" viewBox="0 0 10 13" id="location" x="578" y="311" xmlns="http://www.w3.org/2000/svg"><path fill-rule="evenodd" clip-rule="evenodd" d="M4.875 0C7.565 0 9.75 2.213 9.75 4.938c0 1.987-1.399 3.774-2.57 5.27-.48.568-.95 1.19-1.413 1.804-.224.296-.447.59-.668.877-.128.165-.318.132-.45-.004l-2.075-2.673C1.4 8.716 0 6.927 0 4.938 0 2.213 2.184 0 4.875 0zm2.438 4.875a2.44 2.44 0 00-2.438-2.438 2.44 2.44 0 00-2.438 2.438 2.438 2.438 0 004.875 0z" fill="#25394B"/></svg><svg width="10" height="13" fill="none" viewBox="0 0 10 13" id="location-white" x="588" y="311" xmlns="http://www.w3.org/2000/svg"><path fill-rule="evenodd" clip-rule="evenodd" d="M4.875 0C7.565 0 9.75 2.213 9.75 4.938c0 1.987-1.399 3.774-2.57 5.27-.48.568-.95 1.19-1.413 1.804-.224.296-.447.59-.668.877-.128.165-.318.132-.45-.004l-2.075-2.673C1.4 8.716 0 6.927 0 4.938 0 2.213 2.184 0 4.875 0zm2.438 4.875a2.44 2.44 0 00-2.438-2.438 2.44 2.44 0 00-2.438 2.438 2.438 2.438 0 004.875 0z" fill="#fff"/></svg><svg width="64" height="70" fill="none" viewBox="0 0 64 70" id="logo-cut" x="244" y="311" xmlns="http://www.w3.org/2000/svg"><path d="M128 49.977a.601.601 0 00-.819-.56l-21.462-33.112-.066-.171a.6.6 0 10-.958-.705L65.442 1.687a.599.599 0 00-.59-.713.601.601 0 00-.593.69L49.167 6.376a.4.4 0 00-.746.233l-23.398 7.306a.6.6 0 10-.945.706L8.148 38.633a.601.601 0 00-.657.99L3.79 45.204a.601.601 0 10-.399 1.128L.568 76.325a.601.601 0 10.164 1.187l11.676 30.153a.602.602 0 10.733.937l28.77 20.282a.6.6 0 00.536.871.601.601 0 00.59-.485l34.67 1.595a.601.601 0 101.168-.252l29.472-15.033a.601.601 0 10.84-.837l13.536-26.27a.401.401 0 00.367-.706l3.223-6.118a.601.601 0 10.301-1.164l.905-29.918a.6.6 0 00.481-.59zM13.305 108.179a.601.601 0 00-.664-.591L6.869 85.5l18.35 23.926a1.016 1.016 0 00-.188.393l-11.726-1.64zm11.599-93.57l9.428 3.722-8.937 7.318a.394.394 0 00-.178-.079l-.615-10.801a.603.603 0 00.302-.16zm97.564 73.415l-9.073-.656 8.325-3.815.966 4.184a.401.401 0 00-.218.287zm-10.09-.73l-5.769-.416a.4.4 0 00-.23-.348l9.461-28.047c.028.006.056.01.085.01h.002l5.68 24.573-9.229 4.228zm-4.269 27.951l-17.22 4.747 6.285-5.46a.598.598 0 00.972-.307l9.963 1.02zm-29.413 15.101a.598.598 0 00-.717-.048l-6.457-4.2a1 1 0 00.052-.413l18.293-5.042-11.172 9.703zm-35.602-1.449l13.815-7.686 12.67 4.47-.003.034-26.482 3.182zM7.163 85.08a.598.598 0 00.044-.226.407.407 0 00-.003-.05l17.58-2.823.941 27.102a.99.99 0 00-.12.044L7.165 85.08zm-3.25-38.862l2.149 1.973-1.597 8.262-.795-10.117a.599.599 0 00.243-.118zm2.302 2.114l7.778 7.143a.602.602 0 00.256.887L9.877 72.468l-4.012 1.81L4.517 57.12l1.698-8.788zm25.538-22.535l-5.067 2.783-1.3-2.29a.402.402 0 00.163-.293l6.204-.2zM49.196 6.712l7.816.956-5.711 4.673-2.283-5.417a.404.404 0 00.178-.212zm8.49 1.038l16.185 1.979 3.954 3.432-9.02 4.98-14.518 1.288-2.788-6.617 6.187-5.062zm6.892-5.639a.598.598 0 00.528.01L73.63 9.52 57.877 7.593l6.701-5.482zm32.386 111.957l-17.437 2.4 9.074-9.805 8.475 7.063a.598.598 0 00-.111.342zm-18.202 2.505l-11.3 1.556-2.053-4.637 13.034-14.857a.397.397 0 00.483-.035l9.299 7.749-9.463 10.224zM6.65 84.254l-.743-9.456 3.804-1.717-3.033 11.175c-.01 0-.019 0-.028-.002zm.2.05l3.07-11.319 11.386-5.14 3.18 5.574.294 8.47-17.59 2.825a.602.602 0 00-.342-.412zM54.392 19.91l1.978 4.695a.4.4 0 00-.202.314l-9.73.314-4.242-3.93c.053-.098.09-.207.109-.321l12.087-1.072zm27.426-9.21a.61.61 0 00.049.226l-3.587 1.981-3.54-3.073 7.078.866zm.09.305a.6.6 0 00.653.268l1.688 5.537-.504.033a1.002 1.002 0 00-1.527-.517l-3.866-3.356 3.557-1.965zm33.624 47.168l-2.824.935.965-2.882 1.919 1.64a.402.402 0 00-.06.307zm-3.405 1.128l-23.32 7.721a.4.4 0 00-.298-.232l.946-16.936 14.466-1.956 9.351 7.986-1.145 3.417zm-12.011 33.22l-9.036.695 8.02-3.327 1.331 2.051a1 1 0 00-.315.58zm-9.322.717l-10.751.826 7.103-22.602 11.905 18.35-8.257 3.426zM60.919 119.03a.592.592 0 00-.147-.252l4.281-4.88 1.904 4.3-6.038.832zm-.214-.311a.594.594 0 00-.624-.062l-8.42-14.521a.4.4 0 00.16-.356l8.033-1.621 5.16 11.649-4.309 4.911zm-4.534-93.71a.403.403 0 00.133.248l-3.798 5.597-5.974-5.534 9.639-.31zm22.49 72.888a.4.4 0 00-.249.087L75.579 94.9l4.21-.323-1.046 3.328a.42.42 0 00-.082-.008zm-.312.15a.398.398 0 00-.084.307l-17.956 3.622-2.275-5.136a1 1 0 00.37-.619l17.062-1.312 2.883 3.138zm-30.205 2.405l4.4-1.961-1.08 4.924-.041-.002a.401.401 0 00-.25.087l-3.029-3.048zM29.182 80.877l2.578-7.79 6.81 6.184-9.158 1.86a.403.403 0 00-.23-.254zm.246.34l9.225-1.872 15.086 13.698-1.064 4.853-4.9 2.183-18.447-18.564a.4.4 0 00.1-.297zm10.12-30.556l24.578-.16a.4.4 0 00.249.325l-1.043 3.788-17.39 5.047-6.52-8.751a.4.4 0 00.125-.25zm34.433 1.763l-1.395 3.617-3.639-2.546 4.75-1.379a.996.996 0 00.284.308zm.456.177a1 1 0 00.444-.046l6.05 9.325-7.932-5.55 1.438-3.729zm.115-1.998a.996.996 0 00-.545.165l-3.748-3.471 5.866-3.281-1.573 6.587zm-.875.527a1.003 1.003 0 00-.118.516l-5.128 1.488-3.556-2.488a.399.399 0 00.017-.348l4.918-2.75 3.867 3.582zm-9.154-.275a.4.4 0 00.3-.136l3.498 2.447-4.889 1.42 1.028-3.736a.448.448 0 00.064.005zm.326-.634a.4.4 0 00-.402-.16L61.164 39.54l8.577 7.945-4.892 2.736zm-1.67 4.948L57.7 75.071a.39.39 0 00-.253.036L46.254 60.081 63.18 55.17zm-5.67 20.68L53.86 92.49 39.25 79.224l17.992-3.652a.4.4 0 00.268.277zm-1.078 20.373l-3.655 1.629 1.039-4.74 2.719 2.469a1 1 0 00-.103.642zm-4.88 7.213l1.094-4.989 3.985-1.775a.998.998 0 00.957.369l2.23 5.036-8.013 1.617a.399.399 0 00-.253-.258zm6.815-7.703a1.005 1.005 0 00-.37-.5l5.252-13.62L75.043 94.45l-16.677 1.282zm-.827-.677a.998.998 0 00-.677.161l-2.927-2.656 3.661-16.695.03.001a.4.4 0 00.258-.093l4.995 5.437-5.34 13.846zm.406-19.346a.398.398 0 00.076-.318l7.921-2.124-3.027 7.85-4.97-5.408zm.05-.404a.4.4 0 00-.21-.208L63.28 55.14l5.558-1.613 3.715 2.6-6.57 17.038-7.988 2.14zm14.97-18.889l8.094 5.663 3.894 6.002-18.386 4.927 6.399-16.592zm9.164 6.411l5.96 4.17a.401.401 0 00-.041.254l-2.598.696-3.321-5.12zm6.292 3.96a.398.398 0 00-.282.138l-6.14-4.296-6.707-10.34a1 1 0 00.26-.554l13.814-1.868-.945 16.92zm-12.927-15.54a1.006 1.006 0 00-.466-.528l1.678-7.028 13.147-7.354a.4.4 0 00.259.162l-.719 12.868-13.899 1.88zM89.81 36.26l-13.075 7.313 2.629-11.01 10.424 3.458a.39.39 0 00.022.239zm-13.656 7.638l-5.962 3.335-9.321-8.632-4.144-13.277a.402.402 0 00.205-.203l21.965 7.287-2.743 11.49zm-19.777-18.59a.4.4 0 00.266.041l4.097 13.13-8.166-7.564 3.803-5.607zm4.656 14.11l3.33 10.67a.401.401 0 00-.237.324l-24.579.16a.403.403 0 00-.136-.258l12.884-18.99 8.738 8.094zM39.15 51.02c.074 0 .143-.02.203-.056l6.498 8.725-10.68 3.1 3.898-11.778a.35.35 0 00.081.009zm7.014 9.089l11.209 15.048a.4.4 0 00-.145.309v.019l-18.06 3.666-7.239-6.572 3.054-9.225 11.18-3.245zM31.856 72.513l-6.482-5.885a1.001 1.001 0 00.125-.523l9.379-2.722-3.022 9.13zm-7.588-5.396l.212 6.112-3.092-5.42 2.324-1.048c.139.175.332.303.556.356zm.49-.007a.99.99 0 00.281-.125l6.65 6.037-2.593 7.83a.4.4 0 00-.246.036l-3.849-6.746-.243-7.032zm4.272 14.54a.398.398 0 00.232-.076l18.426 18.545-20.894 9.309a1.002 1.002 0 00-.579-.362l-.016-.457 2.814-26.96h.017zm19.027 18.84l3.053 3.073a.4.4 0 00-.084.303l-23.452 5.751 20.483-9.127zm12.289 1.57l17.941-3.62a.4.4 0 00.088.138l-13.006 14.825-5.023-11.343zm18.482-4.127l1.057-3.364 9.454-.727-10.318 4.28a.403.403 0 00-.193-.189zm1.12-3.86l-4.792.368L63.284 81.52l3.243-8.408 18.476-4.952 2.08 3.207-7.135 22.707zm5.553-26.047l2.57-.69a.4.4 0 00.211.218l-1.007 3.206-1.774-2.734zm3.334-.917l23.257-7.702-8.289 24.751L88.74 67.454a.4.4 0 00.095-.345zm.648-17.753l.718-12.852a.397.397 0 00.251-.108l12.969 11.075-13.938 1.885zm.696-13.653a.4.4 0 00-.074.007L85.15 19.46l14.814 12.495-9.435 3.954a.4.4 0 00-.35-.206zm-.16.033a.399.399 0 00-.204.201l-10.431-3.46 3.42-14.325a.993.993 0 00.572-.19l1.649 1.392 4.995 16.382zm-6.327-18.148a.99.99 0 00.083-.255l.622-.04.365 1.197-1.07-.902zm-1.794-.891a.994.994 0 00-.095.293l-12.778 1.133 8.871-4.9 4.002 3.474zm-.052.78c.084.243.258.443.482.56l-3.41 14.284-21.958-7.285a.403.403 0 00-.024-.238l11.026-6.09 13.884-1.23zM56.892 24.72a.4.4 0 00-.44-.15l-1.966-4.667 13.257-1.175-10.851 5.992zm-15.575-2.892c.202 0 .39-.06.547-.163l3.878 3.592-5.88.19 1.346-3.625a.991.991 0 00.109.006zm4.518 3.515l6.393 5.92-12.89 19a.4.4 0 00-.346-.014l-5.045-8.883 5.881-15.83 6.007-.193zm-6.92 24.95a.401.401 0 00-.165.364l-8.956 1.886 4.112-11.068 5.008 8.818zm-.146.451a.4.4 0 00.214.238l-3.918 11.836-9.702 2.816a1.007 1.007 0 00-.31-.329l4.704-12.663 9.012-1.898zM24.591 65.142a.995.995 0 00-.413.049l-6.192-10.07 11.204-2.36-4.6 12.381zm-.823.315a1.001 1.001 0 00-.254.856l-2.37 1.07-6.316-11.073a.602.602 0 00.259-.578l2.39-.504 6.29 10.229zm-9.277-9.044c.093 0 .18-.021.259-.059l6.313 11.065-10.975 4.954L14.42 56.41a.6.6 0 00.07.004zM25.01 74.335l3.767 6.603a.402.402 0 00-.147.31l.002.025-3.363.54-.26-7.478zm3.636 7.026c.04.133.146.238.28.274l-2.748 26.332-.906-26.065 3.374-.541zm-1.642 28.779a.998.998 0 00-.01-.263l.122-.055 23.932-5.869a.4.4 0 00.537.228l8.42 14.52a.604.604 0 00-.212.258l-31.867-8.494-.922-.325zm33.94 9.066l6.09-.838 2.927 6.61a1.01 1.01 0 00-.179.18l-8.89-5.714a.582.582 0 00.052-.238zm10.12 5.686a.99.99 0 00-.655-.112l-2.87-6.481 11.033-1.519-7.508 8.112zm7.922-26.359a.398.398 0 00.066-.327l10.574-4.386 10.533-.81a.979.979 0 00.151.282l-12.024 12.991-9.3-7.75zm22.12-6.852a.999.999 0 00-.239.029l-1.305-2.011 2.771-1.15-1.053 3.147a1.025 1.025 0 00-.174-.015zm-1.593-2.058L87.337 70.857l1.03-3.277a.396.396 0 00.306-.067l15.097 16.742-1.401 4.183-2.857 1.185zm4.635-4.95l1.763 1.955a.398.398 0 00-.085.377l-2.856 1.184 1.178-3.516zm2.062 1.819a.393.393 0 00-.233.076l-1.797-1.992 8.494-25.361 2.888-.957c.04.086.109.156.194.196l-9.461 28.047a.401.401 0 00-.085-.009zm9.442-28.693l-1.947-1.663.903-2.696 1.132 4.296a.43.43 0 00-.088.063zm-2.348-2.006l-9.263-7.91 8.789-1.188 1.551 5.883-1.077 3.215zm-.296-9.122l2.942-.398c.077.193.213.356.385.469l-1.851 5.529-1.476-5.6zm2.877-.885l-3.003.407-1.133-4.297 4.229 3.567c-.048.1-.08.208-.093.323zm-3.181.43l-9.163 1.24-13.03-11.127a.401.401 0 00.053-.337l9.477-3.972 11.471 9.676 1.192 4.52zm-12.155-14.41l7.061-2.958a.6.6 0 00.6.321l3.085 11.702-10.746-9.064zm7.026-3.04l-7.102 2.977-15.585-13.146-.399-1.31 6.652-.427 16.463 11.447a.603.603 0 00-.029.459zm-23.233-11.96l-1.694-5.56a.599.599 0 00.21-.146l7.637 5.31-6.153.395zm-1.382-5.852a.585.585 0 00.028-.067l21.058 4.653-13.266.852-7.82-5.438zm-1.116-.43L74.5 9.626l-8.433-7.321 15.783 8.194a.431.431 0 00-.007.025zm-27.65 8.913l-11.93 1.057a.896.896 0 00-.04-.095l9.204-7.53 2.767 6.568zM40.75 21.65l-1.416 3.813-6.325.204 7.576-4.16a1 1 0 00.165.143zm-1.45 3.903L33.632 40.81l-6.703-11.804 5.907-3.244 6.465-.208zm-14.15.812a.4.4 0 00.159-.032l1.3 2.288-2.877 1.58 1.371-3.839a.342.342 0 00.048.003zm1.7 2.683l6.741 11.87-4.363 11.744-11.29 2.378-1.947-3.164 7.493-20.98 3.366-1.848zm-9.421 26.099l-2.36.497a.604.604 0 00-.293-.364l1.005-2.813 1.648 2.68zM5.694 74.357L.999 76.475a.598.598 0 00-.199-.117l3.59-18.58 1.304 16.579zM1.2 76.922l4.534-2.046.738 9.392-.013.003-5.369-7a.598.598 0 00.11-.347v-.002zm58.546 42.21a.608.608 0 00.035.277l-2.524 1.405-27.193-9.594 29.682 7.912zm.122.433a.598.598 0 00.927.03l8.512 5.47-11.826-4.172 2.387-1.328zm11.614 5.776a.893.893 0 00-.062-.113l7.916-8.554 17.653-2.43c.016.055.04.106.069.153l-6.567 5.704-19.009 5.24zm26.083-11.868a.598.598 0 00-.432.184l-8.47-7.059 12.03-13a1.002 1.002 0 00.588.073l1.406 4.153-4.983 15.666a.635.635 0 00-.14-.017zm4.164-20.005a1 1 0 00.367-.922l2.656-1.217-1.815 5.707-1.208-3.568zm.183-1.377a.991.991 0 00-.185-.193l1.205-3.597 2.927-1.214a.395.395 0 00.187.173l-1.093 3.437-3.041 1.394zm4.219-4.804a.402.402 0 00.472-.32l5.606.405-7.147 3.275 1.069-3.36zm10.062-29.493a.399.399 0 00-.268-.104h-.014l-1.202-4.557 2.088-6.234a.997.997 0 00.081.004h.02l2.386 8.718-3.091 2.173zm1.178-11.021a1.01 1.01 0 00.362-.352l9.069 3.495a.605.605 0 00.079.363l-7.172 5.042-2.338-8.548zm9.621 3.645a.602.602 0 00.295.15l-2.712 22.539-4.815-17.603 7.232-5.086zm-.051-.83l-9.08-3.5a1.002 1.002 0 00-1.105-1.184l-4.483-11.616 14.68 16.287-.012.013zM116.3 45.08l-.009.006-4.76-4.016-3.15-11.948a.601.601 0 00.093-.05l2.881 3.197L116.3 45.08zm-7.694-16.128a.6.6 0 00-.902-.793L91.426 16.842l13.269-.853c.097.183.283.31.501.32l5.98 15.495-2.57-2.85zm-25.587-18.24l.002-.023a.601.601 0 00-1.09-.349L66.004 2.071l37.786 13.23-20.77-4.59zm-25.815-3.2l-7.958-.974L64.038 1.92l-6.834 5.592zm-8.627-.618a.396.396 0 00.36.065l2.291 5.44-9.314 7.62a.998.998 0 00-1.41.22l-5.549-2.19L48.577 6.895zm-8.252 13.802a1.036 1.036 0 00.023.382l-8.422 4.624-6.38.206a.408.408 0 00-.038-.121l9.014-7.382 5.803 2.291zM24.92 26.295a.168.168 0 00.013.008l-1.438 4.028-7.46 4.097 8.886-8.133zm-1.673 4.731L15.87 51.682 9.14 40.738l5.367-4.913 8.74-4.799zM9.046 40.584l-.656-1.066a.599.599 0 00.103-.39l5.356-2.94-4.803 4.396zm-1.151-.804a.563.563 0 00.078-.005l.705 1.146-1.252 1.145.442-2.287.027.001zm.878 1.295l6.887 11.199-1.052 2.947a.597.597 0 00-.494.123l-7.859-7.218L7.37 42.36l1.403-1.284zm-2.672 6.91l-2.068-1.898a.6.6 0 000-.674l3.116-2.851-1.048 5.423zM4.338 57.11L.861 75.108l2.666-28.324.811 10.326zm1.816 27.35a.6.6 0 00.518.992l5.552 21.244-11.202-28.93 5.132 6.693zm20.685 26.142l29.846 10.53-13.762 7.655a.6.6 0 00-.796-.143l-15.404-17.898a.957.957 0 00.116-.144zm42.782 15.467a1.002 1.002 0 001.632.438l6.42 4.178-33.606-1.546 25.554-3.07zm20.644-5.536l17.354-4.783-28.706 14.643 11.352-9.86zm17.989-5.452l-10.09-1.034a.598.598 0 00-.12-.335l7.435-7.636 2.949 8.713a.594.594 0 00-.174.292zm-10.338-1.494a.653.653 0 00-.126-.07l4.945-15.55 2.68 7.92-7.5 7.7zm5.069-16.408l1.876-5.9 8.365-3.834 9.236.668a.397.397 0 00.063.201l-16.727 17.178-2.813-8.313zm19.849-9.596l-.949-4.105 1.527-.7-.578 4.805zm-1.062-4.593l-5.673-24.538a.4.4 0 00.196-.512l3.039-2.137 5.086 18.593-.939 7.811-1.709.783zm2.773-8.14l1.573 5.751a.602.602 0 00-.229.473l.001.029-2.22 1.017.875-7.27zm.155-1.288l2.598-21.589-.846 27.989-1.752-6.4zm2.062-24.465l-14.668-16.274-6.062-15.709 20.73 31.983zM48.412 6.798L34.767 17.975l-9.683-3.822a.565.565 0 00-.006-.068l23.336-7.287zm-23.988 7.98l.614 10.802a.401.401 0 00-.236.583l-9.425 8.626-7.024 3.857 15.873-23.925c.061.03.128.05.198.056zM7.694 39.744l-.488 2.523-3.196 2.925 3.63-5.47a.522.522 0 00.054.022zm5.587 68.611l11.725 1.64a1.002 1.002 0 001.582.867l15.323 17.804-28.669-20.211a.667.667 0 00.04-.1zm95.609 6.275l-3.028-8.949 16.549-16.995-13.383 25.974a.531.531 0 00-.138-.03zm14.131-27.118l.581-4.822 2.509-1.15.041.03-3.131 5.942z" fill="#FF000A"/></svg><svg width="344" height="311" fill="none" viewBox="0 0 344 311" id="logo-cut-large" xmlns="http://www.w3.org/2000/svg"><path d="M550 209.264a2.575 2.575 0 00-3.52-2.391L454.263 65.471l-.285-.733a2.56 2.56 0 00.749-1.81c0-1.42-1.155-2.57-2.581-2.57a2.58 2.58 0 00-2.283 1.372L281.197 3.043c.029-.153.046-.31.046-.473 0-1.42-1.155-2.57-2.581-2.57a2.575 2.575 0 00-2.581 2.57c0 .128.014.252.031.376l-64.847 20.123a1.722 1.722 0 00-3.212.851c0 .048.003.097.007.143l-100.538 31.2a2.579 2.579 0 00-2.317-1.444 2.575 2.575 0 00-2.581 2.57c0 .748.323 1.42.837 1.89L35.014 160.823a2.575 2.575 0 00-3.67 2.327c0 .754.328 1.432.848 1.9l-15.909 23.835a2.575 2.575 0 00-3.669 2.328c0 1.204.834 2.213 1.956 2.491L2.44 321.78A2.574 2.574 0 000 324.343a2.575 2.575 0 003.147 2.506l50.17 128.768a2.569 2.569 0 00-1.304 2.232c0 1.42 1.154 2.57 2.58 2.57.737 0 1.4-.309 1.87-.802l123.621 86.616a2.55 2.55 0 00-.276 1.15c0 1.42 1.155 2.57 2.582 2.57a2.58 2.58 0 002.531-2.069l148.979 6.81a2.577 2.577 0 002.568 2.306 2.575 2.575 0 002.581-2.57c0-.284-.048-.558-.134-.813l126.637-64.2a2.58 2.58 0 002.1 1.08 2.575 2.575 0 002.581-2.571 2.56 2.56 0 00-1.071-2.081l58.163-112.184a1.717 1.717 0 002.319-1.605c0-.585-.294-1.101-.743-1.409l13.849-26.129c.241.074.497.114.763.114a2.575 2.575 0 002.581-2.57 2.574 2.574 0 00-2.049-2.516l3.886-127.765a2.568 2.568 0 002.069-2.517zM57.17 457.816a2.576 2.576 0 00-2.854-2.521l-24.802-94.33 78.851 102.179a4.265 4.265 0 00-.81 1.677l-50.384-7.005zm49.838-399.587l40.511 15.892-38.398 31.253a1.688 1.688 0 00-.769-.337l-2.64-46.127a2.598 2.598 0 001.296-.681zM526.23 371.745l-38.987-2.801 35.771-16.29 4.154 17.865a1.712 1.712 0 00-.938 1.226zm-43.354-3.115l-24.79-1.78a1.708 1.708 0 00-.988-1.483l40.652-119.776c.119.025.241.04.367.04h.006l24.409 104.94-39.656 18.059zm-18.347 119.363l-73.991 20.27 27.009-23.315a2.574 2.574 0 001.677.619 2.577 2.577 0 002.497-1.932l42.808 4.358zm-126.384 64.489a2.578 2.578 0 00-3.08-.204l-27.744-17.94a4.233 4.233 0 00.224-1.761l78.603-21.532-48.003 41.437zm-152.978-6.19l59.364-32.822 54.441 19.088-.011.147-113.794 13.587zM30.783 359.175a2.55 2.55 0 00.19-.965c0-.075-.006-.145-.012-.217l75.535-12.055 4.047 115.741a4.484 4.484 0 00-.514.185L30.783 359.175zm-13.97-165.961l9.233 8.425-6.86 35.285-3.417-43.206a2.579 2.579 0 001.044-.504zm9.894 9.028l33.42 30.503a2.54 2.54 0 00-.442 1.437 2.57 2.57 0 001.543 2.352l-18.786 68.778-17.24 7.734-5.793-73.274 7.298-37.53zm109.732-96.236l-21.774 11.883-5.588-9.781c.395-.288.661-.735.703-1.249l26.659-.853zm74.95-81.503l33.586 4.082-24.543 19.956-9.806-23.134c.352-.202.623-.521.763-.904zm36.48 4.432l69.547 8.452 16.987 14.655-38.756 21.272-62.382 5.497-11.978-28.26 26.582-21.616zm29.615-24.08a2.575 2.575 0 002.27.042l36.626 31.597-67.69-8.227 28.794-23.412zm139.161 478.109l-74.927 10.252 38.991-41.872 36.415 30.162a2.542 2.542 0 00-.479 1.458zm-78.214 10.701l-48.554 6.643-8.823-19.8 56.007-63.449a1.713 1.713 0 002.072-.151l39.958 33.096-40.66 43.661zM28.573 355.647l-3.193-40.382 16.349-7.335-13.035 47.726c-.04-.004-.08-.005-.121-.009zm.857.209l13.201-48.331 48.921-21.946 13.664 23.802 1.266 36.173L30.9 357.616a2.574 2.574 0 00-1.47-1.76zM233.722 80.871l8.496 20.047a1.71 1.71 0 00-.868 1.343l-41.807 1.34-18.23-16.782c.23-.42.392-.883.47-1.373l51.939-4.575zm117.846-39.333c.008.343.08.67.208.967l-15.413 8.46-15.211-13.123 30.416 3.696zm.388 1.304a2.58 2.58 0 002.801 1.143l7.256 23.647-2.169.14a4.3 4.3 0 00-4.099-2.98c-.915 0-1.762.285-2.46.77l-16.611-14.329 15.282-8.39zm144.475 201.43l-12.137 3.994 4.147-12.307 8.248 7.001a1.706 1.706 0 00-.258 1.312zm-14.632 4.815l-100.201 32.975a1.72 1.72 0 00-1.283-.992l4.065-72.325 62.159-8.353 40.18 34.102-4.92 14.593zM430.19 390.953l-38.826 2.968 34.463-14.207 5.719 8.76a4.256 4.256 0 00-1.356 2.479zm-40.056 3.062l-46.196 3.53 30.521-96.524 51.154 78.367-35.479 14.627zM261.763 504.154a2.55 2.55 0 00-.633-1.076l18.394-20.839 8.183 18.364-25.944 3.551zm-.919-1.327a2.576 2.576 0 00-2.683-.263l-36.182-62.012c.422-.312.698-.811.698-1.374 0-.05-.004-.099-.008-.149l34.517-6.921 22.168 49.748-18.51 20.971zM241.36 102.643c.057.419.265.791.569 1.057l-16.316 23.901-25.671-23.63 41.418-1.328zm96.637 311.265c-.405 0-.776.141-1.07.373l-12.175-13.17 18.094-1.382-4.495 14.215a1.786 1.786 0 00-.354-.036zm-1.342.641a1.697 1.697 0 00-.359 1.31l-77.156 15.468-9.774-21.932a4.268 4.268 0 001.587-2.644l73.313-5.604 12.389 13.402zm-129.786 10.269l18.907-8.374-4.64 21.03a1.727 1.727 0 00-1.251.363l-13.016-13.019zm-81.476-83.594l11.077-33.263 29.263 26.407-39.352 7.937a1.722 1.722 0 00-.988-1.081zm1.057 1.455l39.635-7.995 64.824 58.493-4.573 20.727-21.056 9.324-79.26-79.281a1.702 1.702 0 00.43-1.268zm43.48-130.494l105.612-.68c.075.634.495 1.16 1.069 1.388l-4.482 16.175-74.724 21.555-28.011-37.374c.293-.272.49-.645.536-1.064zm147.956 7.532l-5.993 15.446-15.636-10.874 20.411-5.887c.308.52.725.967 1.218 1.315zm1.962.756a4.256 4.256 0 001.906-.196l25.994 39.821-34.079-23.701 6.179-15.924zm.493-8.535a4.293 4.293 0 00-2.34.706l-16.106-14.825 25.203-14.009-6.757 28.128zm-3.759 2.252a4.265 4.265 0 00-.51 2.203l-22.033 6.356-15.279-10.627a1.713 1.713 0 00.074-1.483l21.13-11.746 16.618 15.297zm-39.333-1.173a1.72 1.72 0 001.291-.582l15.027 10.451-21.007 6.06 4.418-15.95c.09.012.18.021.271.021zm1.398-2.709a1.72 1.72 0 00-1.726-.686l-14.108-44.927 36.857 33.928-21.023 11.685zm-7.173 21.13l-23.543 84.992a1.714 1.714 0 00-.314-.031 1.74 1.74 0 00-.776.185l-48.092-64.167 72.725-20.979zM247.11 319.75l-15.681 71.07-62.784-56.654 77.315-15.596a1.711 1.711 0 001.15 1.18zm-4.634 87.006l-15.706 6.956 4.466-20.24 11.682 10.541a4.251 4.251 0 00-.442 2.743zm-20.968 30.801l4.702-21.304 17.121-7.581a4.3 4.3 0 004.114 1.576l9.582 21.506-34.433 6.904a1.719 1.719 0 00-1.086-1.101zm29.285-32.893a4.3 4.3 0 00-1.595-2.135l22.572-58.165 50.682 54.824-71.659 5.476zm-3.556-2.891a4.303 4.303 0 00-2.908.688l-12.575-11.346 15.729-71.294a1.731 1.731 0 001.235-.392l21.463 23.217-22.944 59.127zm1.747-82.62a1.696 1.696 0 00.323-1.358l34.037-9.067-13.008 33.522-21.352-23.097zm.21-1.722a1.718 1.718 0 00-.898-.891l23.608-85.225 23.879-6.889 15.966 11.104-28.234 72.76-34.321 9.141zm64.331-80.667l34.777 24.185 16.729 25.628-79 21.043 27.494-70.856zm39.372 27.38l25.609 17.81a1.703 1.703 0 00-.176 1.081l-11.161 2.973-14.272-21.864zm27.036 16.905c-.484.025-.914.25-1.211.593l-26.382-18.347-28.821-44.155c.596-.637 1-1.458 1.116-2.366l59.358-7.976-4.06 72.251zm-55.544-66.358a4.303 4.303 0 00-2.004-2.256l7.21-30.013 56.492-31.405c.26.36.656.615 1.113.691l-3.088 54.955-59.723 8.028zm61.511-64.004l-56.185 31.232 11.297-47.02 44.79 14.77a1.715 1.715 0 00.098 1.018zm-58.68 32.62l-25.619 14.242-40.05-36.866-17.805-56.699c.39-.17.705-.478.881-.865l94.38 31.12-11.787 49.068zm-84.977-79.39a1.724 1.724 0 001.139.177l17.607 56.07-35.091-32.302 16.345-23.945zm20.006 60.258l14.306 45.562a1.713 1.713 0 00-1.019 1.388l-105.612.679a1.717 1.717 0 00-.585-1.098l55.36-81.094 37.55 34.563zm-94.03 49.541c.317 0 .615-.088.87-.238l27.924 37.258-45.894 13.238 16.75-50.296c.111.027.229.038.35.038zm30.137 38.813l48.164 64.263a1.705 1.705 0 00-.624 1.319c0 .029.004.055.004.082l-77.607 15.655-31.1-28.063 13.121-39.398 48.042-13.858zm-61.473 52.978l-27.852-25.133a4.26 4.26 0 00.541-2.082c0-.051-.002-.1-.004-.152l40.299-11.624-12.984 38.991zm-32.607-23.045l.912 26.102-13.286-23.143 9.988-4.48a4.303 4.303 0 002.386 1.521zm2.105-.028a4.281 4.281 0 001.21-.533l28.569 25.778-11.136 33.438a1.724 1.724 0 00-1.058.155l-16.537-28.808-1.048-30.03zm18.356 62.088c.373 0 .717-.12.998-.32l79.173 79.193-89.778 39.756a4.3 4.3 0 00-2.486-1.548l-.069-1.948 12.089-115.137c.027 0 .048.004.073.004zm81.757 80.461l13.12 13.123a1.699 1.699 0 00-.363 1.291l-100.77 24.561 88.013-38.975zm52.805 6.702l77.092-15.454c.085.22.213.418.375.586l-55.882 63.308-21.585-48.44zm79.415-17.621l4.543-14.368 40.622-3.105-44.337 18.276a1.722 1.722 0 00-.828-.803zm4.813-16.487l-20.589 1.573-51.015-55.182 13.934-35.908 79.39-21.146 8.94 13.695-30.66 96.968zm23.86-111.234l11.045-2.942c.168.415.495.748.906.927l-4.329 13.692-7.622-11.677zm14.326-3.917l99.933-32.888-35.618 105.699-64.725-71.335a1.703 1.703 0 00.41-1.476zm2.785-75.812l3.084-54.883a1.71 1.71 0 001.08-.461l55.726 47.296-59.89 8.048zm2.988-58.305a1.7 1.7 0 00-.315.031l-21.291-69.4 63.653 53.364-40.542 16.887a1.72 1.72 0 00-1.505-.882zm-.682.141c-.39.168-.704.474-.88.859l-44.822-14.779 14.697-61.172a4.283 4.283 0 002.459-.808l7.083 5.94 21.463 69.96zm-27.191-77.5c.166-.342.289-.705.36-1.09l2.669-.171 1.569 5.114-4.598-3.854zm-7.707-3.807a4.22 4.22 0 00-.407 1.251l-54.909 4.838 38.121-20.923 17.195 14.834zm-.225 3.336a4.306 4.306 0 002.07 2.391l-14.654 60.997-94.348-31.109a1.71 1.71 0 00-.103-1.019l47.378-26.003 59.657-5.257zm-107.224 30.929a1.719 1.719 0 00-1.887-.638l-8.449-19.933 56.961-5.02-46.625 25.591zm-66.924-12.352a4.3 4.3 0 002.352-.697l16.664 15.339-25.269.809 5.785-15.477c.155.017.312.026.468.026zm19.415 15.01l27.47 25.285-55.391 81.14a1.718 1.718 0 00-1.485-.063l-21.675-37.934 25.271-67.6 25.81-.828zm-29.739 106.55a1.709 1.709 0 00-.703 1.554l-38.485 8.056 17.67-47.267 21.518 37.657zm-.623 1.927c.151.453.486.821.918 1.017l-16.833 50.544-41.688 12.026a4.314 4.314 0 00-1.335-1.406l20.215-54.076 38.723-8.105zm-60.922 61.486a4.282 4.282 0 00-1.772.208l-26.61-43.002 48.145-10.076-19.763 52.87zm-3.537 1.343a4.257 4.257 0 00-1.092 3.657l-10.179 4.566-27.143-47.282a2.566 2.566 0 001.113-2.472l10.275-2.149 27.026 43.68zm-39.859-38.619c.398 0 .774-.094 1.11-.254l27.127 47.252-47.159 21.158 18.62-68.174c.1.012.199.018.302.018zm45.191 76.533l16.188 28.197a1.71 1.71 0 00-.631 1.325c0 .036.004.072.006.107l-14.446 2.305-1.117-31.934zm15.626 30.004a1.718 1.718 0 001.202 1.171L112.48 456.91l-3.893-111.307 14.498-2.313zm-7.059 122.902a4.334 4.334 0 00-.044-1.125l.53-.235 102.83-25.064a1.719 1.719 0 002.308.977l36.18 62.008a2.583 2.583 0 00-.912 1.1L119.99 467.58l-3.964-1.388zm145.84 38.716l26.164-3.579 12.579 28.228a4.3 4.3 0 00-.767.77l-38.203-24.402a2.47 2.47 0 00.227-1.017zm43.484 24.282a4.281 4.281 0 00-2.816-.48L290.2 501.033l47.411-6.487-32.261 34.644zm34.039-112.565a1.69 1.69 0 00.281-1.396l45.436-18.73 45.26-3.459c.151.438.371.843.648 1.203l-51.665 55.479-39.96-33.097zm95.046-29.263c-.354 0-.698.044-1.027.124l-5.606-8.587 11.907-4.909-4.527 13.437a4.405 4.405 0 00-.747-.065zm-6.845-8.787l-52.313-80.142 4.424-13.992a1.714 1.714 0 001.316-.286l64.87 71.496-6.019 17.861-12.278 5.063zm19.916-21.14l7.575 8.349a1.696 1.696 0 00-.365 1.611l-12.271 5.057 5.061-15.017zm8.862 7.768c-.375 0-.721.12-1.004.324l-7.718-8.507 36.496-108.305 12.409-4.084c.171.368.467.665.834.836l-40.652 119.776a1.744 1.744 0 00-.365-.04zm40.572-122.535l-8.367-7.1 3.879-11.511 4.866 18.343a1.723 1.723 0 00-.378.268zm-10.091-8.564l-39.802-33.781 37.766-5.074 6.662 25.125-4.626 13.73zm-1.274-38.958l12.644-1.698a4.307 4.307 0 001.655 2.003l-7.957 23.611-6.342-23.916zm12.363-3.776l-12.904 1.735-4.867-18.351 18.17 15.234a4.266 4.266 0 00-.399 1.382zm-13.668 1.838l-39.374 5.291-55.983-47.516a1.712 1.712 0 00.223-1.44l40.723-16.963 49.289 41.323 5.122 19.305zm-52.227-61.538l30.337-12.637a2.584 2.584 0 002.582 1.373l13.255 49.975-46.174-38.711zm30.188-12.985l-30.517 12.711-66.964-56.14-1.715-5.59 28.583-1.824 70.738 48.882a2.538 2.538 0 00-.125 1.961zm-99.827-51.08l-7.282-23.738c.346-.141.654-.355.906-.623l32.812 22.673-26.436 1.689zm-5.942-24.986c.046-.093.086-.188.121-.287l90.485 19.87-57.002 3.639-33.604-23.222zm-4.795-1.837l-31.548-3.835L283.88 5.683l67.82 34.992c-.012.035-.023.07-.033.107zM232.863 78.845l-51.267 4.517a3.823 3.823 0 00-.166-.406L220.975 50.8l11.888 28.044zm-57.767 9.456l-6.086 16.281-27.179.872 32.553-17.767c.213.229.452.434.712.614zm-6.231 16.665l-24.356 65.154-28.804-50.411 25.384-13.853 27.776-.89zm-60.8 3.471c.241 0 .47-.049.679-.139l5.584 9.774-12.358 6.744 5.891-16.392c.067.01.135.013.204.013zm7.304 11.455l28.965 50.692-18.748 50.152L77.07 230.89l-8.36-13.511 32.191-89.591 14.468-7.896zM74.885 231.347l-10.14 2.123a2.584 2.584 0 00-1.257-1.552l4.317-12.012 7.08 11.441zm-50.42 82.033l-20.17 9.047a2.578 2.578 0 00-.856-.502l15.427-79.346 5.598 70.801zM5.157 324.335l19.48-8.739 3.172 40.108-.055.013-23.07-29.895c.297-.419.473-.929.473-1.481v-.006zM256.723 504.59a2.548 2.548 0 00.15 1.186l-10.847 5.998-116.844-40.969 127.541 33.785zm.522 1.853a2.58 2.58 0 003.983.125l36.574 23.361-50.812-17.816 10.255-5.67zm49.904 24.662a4.094 4.094 0 00-.267-.481l34.016-36.529 75.85-10.377c.069.235.17.452.298.653l-28.219 24.358-81.678 22.376zm112.075-50.679c-.729 0-1.387.303-1.855.787l-36.398-30.148 51.695-55.514a4.31 4.31 0 002.528.31l6.037 17.734-21.409 66.904a2.557 2.557 0 00-.598-.073zm17.895-85.433a4.264 4.264 0 001.575-3.937l11.412-5.198-7.8 24.375-5.187-15.24zm.784-5.881a4.242 4.242 0 00-.796-.821l5.178-15.361 12.576-5.185c.18.325.463.584.805.737l-4.698 14.68-13.065 5.95zm18.128-20.514a1.716 1.716 0 002.027-1.369l24.091 1.731-30.71 13.987 4.592-14.349zm43.235-125.951a1.72 1.72 0 00-1.152-.443c-.02 0-.039.002-.06.004l-5.162-19.463 8.971-26.622c.114.009.229.015.346.015l.088-.002 10.249 37.231-13.28 9.28zm5.061-47.065a4.306 4.306 0 001.558-1.502l38.966 14.927a2.555 2.555 0 00.339 1.55l-30.814 21.533-10.049-36.508zm41.343 15.569c.348.32.783.547 1.267.638l-11.653 96.254-20.692-75.175 31.078-21.717zm-.22-3.547l-39.014-14.945a4.291 4.291 0 00-4.751-5.057l-19.262-49.605 63.076 69.554-.049.053zm-45.725-19.246l-.036.025-20.455-17.149-13.533-51.024a2.62 2.62 0 00.398-.215l12.381 13.653 21.245 54.71zm-33.058-68.874a2.555 2.555 0 00.585-1.629 2.575 2.575 0 00-2.581-2.571c-.742 0-1.409.314-1.879.813l-69.947-48.335 57.018-3.64a2.58 2.58 0 002.153 1.368l25.694 66.171-11.043-12.177zm-109.943-77.9c.002-.033.006-.063.006-.096 0-1.42-1.155-2.57-2.581-2.57-.866 0-1.631.426-2.099 1.08L283.604 4.686 445.969 61.18l-89.245-19.596zM245.797 27.917l-34.192-4.155 63.56-19.725-29.368 23.88zm-37.068-2.636a1.712 1.712 0 001.547.277l9.846 23.232-40.023 32.544a4.294 4.294 0 00-2.566-.846 4.298 4.298 0 00-3.493 1.786l-23.841-9.352 58.53-47.64zM173.27 84.222a4.279 4.279 0 00.101 1.63l-36.19 19.748-27.414.878a1.735 1.735 0 00-.161-.516l38.729-31.523 24.935 9.783zm-66.186 23.911l.056.036-6.181 17.201-32.055 17.494 38.18-34.731zm-7.192 20.205l-31.695 88.211-28.921-46.736 23.065-20.982 37.55-20.493zm-61.023 40.816l-2.817-4.552a2.544 2.544 0 00.44-1.662l23.015-12.561-20.639 18.775zm-4.947-3.432c.115 0 .226-.01.337-.025l3.028 4.895-5.378 4.891 1.899-9.769c.04.002.076.008.114.008zm3.775 5.529l29.593 47.823-4.521 12.585a2.577 2.577 0 00-2.122.524l-33.768-30.82 4.79-24.629 6.027-5.483zm-11.481 29.51l-8.885-8.109c.28-.411.442-.906.442-1.438a2.54 2.54 0 00-.442-1.437l13.387-12.178-4.502 23.162zm-7.575 38.968L3.698 316.588 15.154 195.63l3.487 44.099zm7.804 116.794a2.553 2.553 0 00-.635 1.685 2.575 2.575 0 002.859 2.555l23.854 90.72L4.39 327.942l22.055 28.581zm88.88 111.643l128.243 44.966-59.133 32.693a2.578 2.578 0 00-3.422-.613l-66.187-76.433c.185-.188.351-.392.499-.613zm183.829 66.051a4.3 4.3 0 004.105 2.998c1.12 0 2.141-.428 2.908-1.127l27.588 17.839-144.406-6.601 109.805-13.109zm88.703-23.641l74.569-20.428-123.345 62.534 48.776-42.106zm77.296-23.284l-43.352-4.415a2.54 2.54 0 00-.52-1.43l31.951-32.61 12.668 37.21a2.514 2.514 0 00-.747 1.245zm-44.421-6.378a2.631 2.631 0 00-.543-.299l21.251-66.41 11.515 33.823-32.223 32.886zm21.782-70.074l8.063-25.197 35.941-16.369 39.685 2.85c.011.316.111.611.273.861l-71.875 73.358-12.087-35.503zm85.287-40.98l-4.078-17.53 6.562-2.987-2.484 20.517zm-4.562-19.613l-24.374-104.789a1.713 1.713 0 00.841-2.188l13.056-9.122 21.857 79.397-4.038 33.36-7.342 3.342zm11.915-34.76l6.761 24.56a2.559 2.559 0 00-.987 2.018c0 .042.004.082.006.124l-9.54 4.345 3.76-31.047zm.668-5.502l11.161-92.194-3.636 119.526-7.525-27.332zm8.857-104.475l-63.027-69.501-26.047-67.082 89.074 136.583zM208.024 24.872l-58.639 47.73L107.78 56.28a2.525 2.525 0 00-.028-.292l100.272-31.117zM104.947 58.946l2.64 46.133a1.714 1.714 0 00-1.243 1.645c0 .308.083.596.226.845l-40.5 36.839-30.176 16.47 68.2-102.172c.264.126.551.21.853.24zM33.058 165.57l-2.095 10.775-13.731 12.49 15.593-23.36c.076.036.155.069.233.095zm24.01 293.003l50.38 7.005a4.292 4.292 0 004.296 4.501c.933 0 1.797-.297 2.502-.8l65.84 76.031L56.901 459a2.85 2.85 0 00.167-.427zm410.821 26.799l-13.013-38.217 71.111-72.577-57.508 110.92a2.392 2.392 0 00-.59-.126zm60.719-115.806l2.493-20.596 10.783-4.91c.057.046.115.089.176.131l-13.452 25.375z" fill="#FF000A"/></svg><svg width="344" height="311" fill="none" viewBox="0 0 344 311" id="logo-cut-large-white" x="344" xmlns="http://www.w3.org/2000/svg"><path d="M550 209.264a2.575 2.575 0 00-3.52-2.391L454.263 65.471l-.285-.733a2.56 2.56 0 00.749-1.81c0-1.42-1.155-2.57-2.581-2.57a2.58 2.58 0 00-2.283 1.372L281.197 3.043c.029-.153.046-.31.046-.473 0-1.42-1.155-2.57-2.581-2.57a2.575 2.575 0 00-2.581 2.57c0 .128.014.252.031.376l-64.847 20.123a1.722 1.722 0 00-3.212.851c0 .048.003.097.007.143l-100.538 31.2a2.579 2.579 0 00-2.317-1.444 2.575 2.575 0 00-2.581 2.57c0 .748.323 1.42.837 1.89L35.014 160.823a2.575 2.575 0 00-3.67 2.327c0 .754.328 1.432.848 1.9l-15.909 23.835a2.575 2.575 0 00-3.669 2.328c0 1.204.834 2.213 1.956 2.491L2.44 321.78A2.574 2.574 0 000 324.343a2.575 2.575 0 003.147 2.506l50.17 128.768a2.569 2.569 0 00-1.304 2.232c0 1.42 1.154 2.57 2.58 2.57.737 0 1.4-.309 1.87-.802l123.621 86.616a2.55 2.55 0 00-.276 1.15c0 1.42 1.155 2.57 2.582 2.57a2.58 2.58 0 002.531-2.069l148.979 6.81a2.577 2.577 0 002.568 2.306 2.575 2.575 0 002.581-2.57c0-.284-.048-.558-.134-.813l126.637-64.2a2.58 2.58 0 002.1 1.08 2.575 2.575 0 002.581-2.571 2.56 2.56 0 00-1.071-2.081l58.163-112.184a1.717 1.717 0 002.319-1.605c0-.585-.294-1.101-.743-1.409l13.849-26.129c.241.074.497.114.763.114a2.575 2.575 0 002.581-2.57 2.574 2.574 0 00-2.049-2.516l3.886-127.765a2.568 2.568 0 002.069-2.517zM57.17 457.816a2.576 2.576 0 00-2.854-2.521l-24.802-94.33 78.851 102.179a4.265 4.265 0 00-.81 1.677l-50.384-7.005zm49.838-399.587l40.511 15.892-38.398 31.253a1.688 1.688 0 00-.769-.337l-2.64-46.127a2.598 2.598 0 001.296-.681zM526.23 371.745l-38.987-2.801 35.771-16.29 4.154 17.865a1.712 1.712 0 00-.938 1.226zm-43.354-3.115l-24.79-1.78a1.708 1.708 0 00-.988-1.483l40.652-119.776c.119.025.241.04.367.04h.006l24.409 104.94-39.656 18.059zm-18.347 119.363l-73.991 20.27 27.009-23.315a2.574 2.574 0 001.677.619 2.577 2.577 0 002.497-1.932l42.808 4.358zm-126.384 64.489a2.578 2.578 0 00-3.08-.204l-27.744-17.94a4.233 4.233 0 00.224-1.761l78.603-21.532-48.003 41.437zm-152.978-6.19l59.364-32.822 54.441 19.088-.011.147-113.794 13.587zM30.783 359.175a2.55 2.55 0 00.19-.965c0-.075-.006-.145-.012-.217l75.535-12.055 4.047 115.741a4.484 4.484 0 00-.514.185L30.783 359.175zm-13.97-165.961l9.233 8.425-6.86 35.285-3.417-43.206a2.579 2.579 0 001.044-.504zm9.894 9.028l33.42 30.503a2.54 2.54 0 00-.442 1.437 2.57 2.57 0 001.543 2.352l-18.786 68.778-17.24 7.734-5.793-73.274 7.298-37.53zm109.732-96.236l-21.774 11.883-5.588-9.781c.395-.288.661-.735.703-1.249l26.659-.853zm74.95-81.503l33.586 4.082-24.543 19.956-9.806-23.134c.352-.202.623-.521.763-.904zm36.48 4.432l69.547 8.452 16.987 14.655-38.756 21.272-62.382 5.497-11.978-28.26 26.582-21.616zm29.615-24.08a2.575 2.575 0 002.27.042l36.626 31.597-67.69-8.227 28.794-23.412zm139.161 478.109l-74.927 10.252 38.991-41.872 36.415 30.162a2.542 2.542 0 00-.479 1.458zm-78.214 10.701l-48.554 6.643-8.823-19.8 56.007-63.449a1.713 1.713 0 002.072-.151l39.958 33.096-40.66 43.661zM28.573 355.647l-3.193-40.382 16.349-7.335-13.035 47.726c-.04-.004-.08-.005-.121-.009zm.857.209l13.201-48.331 48.921-21.946 13.664 23.802 1.266 36.173L30.9 357.616a2.574 2.574 0 00-1.47-1.76zM233.722 80.871l8.496 20.047a1.71 1.71 0 00-.868 1.343l-41.807 1.34-18.23-16.782c.23-.42.392-.883.47-1.373l51.939-4.575zm117.846-39.333c.008.343.08.67.208.967l-15.413 8.46-15.211-13.123 30.416 3.696zm.388 1.304a2.58 2.58 0 002.801 1.143l7.256 23.647-2.169.14a4.3 4.3 0 00-4.099-2.98c-.915 0-1.762.285-2.46.77l-16.611-14.329 15.282-8.39zm144.475 201.43l-12.137 3.994 4.147-12.307 8.248 7.001a1.706 1.706 0 00-.258 1.312zm-14.632 4.815l-100.201 32.975a1.72 1.72 0 00-1.283-.992l4.065-72.325 62.159-8.353 40.18 34.102-4.92 14.593zM430.19 390.953l-38.826 2.968 34.463-14.207 5.719 8.76a4.256 4.256 0 00-1.356 2.479zm-40.056 3.062l-46.196 3.53 30.521-96.524 51.154 78.367-35.479 14.627zM261.763 504.154a2.55 2.55 0 00-.633-1.076l18.394-20.839 8.183 18.364-25.944 3.551zm-.919-1.327a2.576 2.576 0 00-2.683-.263l-36.182-62.012c.422-.312.698-.811.698-1.374 0-.05-.004-.099-.008-.149l34.517-6.921 22.168 49.748-18.51 20.971zM241.36 102.643c.057.419.265.791.569 1.057l-16.316 23.901-25.671-23.63 41.418-1.328zm96.637 311.265c-.405 0-.776.141-1.07.373l-12.175-13.17 18.094-1.382-4.495 14.215a1.786 1.786 0 00-.354-.036zm-1.342.641a1.697 1.697 0 00-.359 1.31l-77.156 15.468-9.774-21.932a4.268 4.268 0 001.587-2.644l73.313-5.604 12.389 13.402zm-129.786 10.269l18.907-8.374-4.64 21.03a1.727 1.727 0 00-1.251.363l-13.016-13.019zm-81.476-83.594l11.077-33.263 29.263 26.407-39.352 7.937a1.722 1.722 0 00-.988-1.081zm1.057 1.455l39.635-7.995 64.824 58.493-4.573 20.727-21.056 9.324-79.26-79.281a1.702 1.702 0 00.43-1.268zm43.48-130.494l105.612-.68c.075.634.495 1.16 1.069 1.388l-4.482 16.175-74.724 21.555-28.011-37.374c.293-.272.49-.645.536-1.064zm147.956 7.532l-5.993 15.446-15.636-10.874 20.411-5.887c.308.52.725.967 1.218 1.315zm1.962.756a4.256 4.256 0 001.906-.196l25.994 39.821-34.079-23.701 6.179-15.924zm.493-8.535a4.293 4.293 0 00-2.34.706l-16.106-14.825 25.203-14.009-6.757 28.128zm-3.759 2.252a4.265 4.265 0 00-.51 2.203l-22.033 6.356-15.279-10.627a1.713 1.713 0 00.074-1.483l21.13-11.746 16.618 15.297zm-39.333-1.173a1.72 1.72 0 001.291-.582l15.027 10.451-21.007 6.06 4.418-15.95c.09.012.18.021.271.021zm1.398-2.709a1.72 1.72 0 00-1.726-.686l-14.108-44.927 36.857 33.928-21.023 11.685zm-7.173 21.13l-23.543 84.992a1.714 1.714 0 00-.314-.031 1.74 1.74 0 00-.776.185l-48.092-64.167 72.725-20.979zM247.11 319.75l-15.681 71.07-62.784-56.654 77.315-15.596a1.711 1.711 0 001.15 1.18zm-4.634 87.006l-15.706 6.956 4.466-20.24 11.682 10.541a4.251 4.251 0 00-.442 2.743zm-20.968 30.801l4.702-21.304 17.121-7.581a4.3 4.3 0 004.114 1.576l9.582 21.506-34.433 6.904a1.719 1.719 0 00-1.086-1.101zm29.285-32.893a4.3 4.3 0 00-1.595-2.135l22.572-58.165 50.682 54.824-71.659 5.476zm-3.556-2.891a4.303 4.303 0 00-2.908.688l-12.575-11.346 15.729-71.294a1.731 1.731 0 001.235-.392l21.463 23.217-22.944 59.127zm1.747-82.62a1.696 1.696 0 00.323-1.358l34.037-9.067-13.008 33.522-21.352-23.097zm.21-1.722a1.718 1.718 0 00-.898-.891l23.608-85.225 23.879-6.889 15.966 11.104-28.234 72.76-34.321 9.141zm64.331-80.667l34.777 24.185 16.729 25.628-79 21.043 27.494-70.856zm39.372 27.38l25.609 17.81a1.703 1.703 0 00-.176 1.081l-11.161 2.973-14.272-21.864zm27.036 16.905c-.484.025-.914.25-1.211.593l-26.382-18.347-28.821-44.155c.596-.637 1-1.458 1.116-2.366l59.358-7.976-4.06 72.251zm-55.544-66.358a4.303 4.303 0 00-2.004-2.256l7.21-30.013 56.492-31.405c.26.36.656.615 1.113.691l-3.088 54.955-59.723 8.028zm61.511-64.004l-56.185 31.232 11.297-47.02 44.79 14.77a1.715 1.715 0 00.098 1.018zm-58.68 32.62l-25.619 14.242-40.05-36.866-17.805-56.699c.39-.17.705-.478.881-.865l94.38 31.12-11.787 49.068zm-84.977-79.39a1.724 1.724 0 001.139.177l17.607 56.07-35.091-32.302 16.345-23.945zm20.006 60.258l14.306 45.562a1.713 1.713 0 00-1.019 1.388l-105.612.679a1.717 1.717 0 00-.585-1.098l55.36-81.094 37.55 34.563zm-94.03 49.541c.317 0 .615-.088.87-.238l27.924 37.258-45.894 13.238 16.75-50.296c.111.027.229.038.35.038zm30.137 38.813l48.164 64.263a1.705 1.705 0 00-.624 1.319c0 .029.004.055.004.082l-77.607 15.655-31.1-28.063 13.121-39.398 48.042-13.858zm-61.473 52.978l-27.852-25.133a4.26 4.26 0 00.541-2.082c0-.051-.002-.1-.004-.152l40.299-11.624-12.984 38.991zm-32.607-23.045l.912 26.102-13.286-23.143 9.988-4.48a4.303 4.303 0 002.386 1.521zm2.105-.028a4.281 4.281 0 001.21-.533l28.569 25.778-11.136 33.438a1.724 1.724 0 00-1.058.155l-16.537-28.808-1.048-30.03zm18.356 62.088c.373 0 .717-.12.998-.32l79.173 79.193-89.778 39.756a4.3 4.3 0 00-2.486-1.548l-.069-1.948 12.089-115.137c.027 0 .048.004.073.004zm81.757 80.461l13.12 13.123a1.699 1.699 0 00-.363 1.291l-100.77 24.561 88.013-38.975zm52.805 6.702l77.092-15.454c.085.22.213.418.375.586l-55.882 63.308-21.585-48.44zm79.415-17.621l4.543-14.368 40.622-3.105-44.337 18.276a1.722 1.722 0 00-.828-.803zm4.813-16.487l-20.589 1.573-51.015-55.182 13.934-35.908 79.39-21.146 8.94 13.695-30.66 96.968zm23.86-111.234l11.045-2.942c.168.415.495.748.906.927l-4.329 13.692-7.622-11.677zm14.326-3.917l99.933-32.888-35.618 105.699-64.725-71.335a1.703 1.703 0 00.41-1.476zm2.785-75.812l3.084-54.883a1.71 1.71 0 001.08-.461l55.726 47.296-59.89 8.048zm2.988-58.305a1.7 1.7 0 00-.315.031l-21.291-69.4 63.653 53.364-40.542 16.887a1.72 1.72 0 00-1.505-.882zm-.682.141c-.39.168-.704.474-.88.859l-44.822-14.779 14.697-61.172a4.283 4.283 0 002.459-.808l7.083 5.94 21.463 69.96zm-27.191-77.5c.166-.342.289-.705.36-1.09l2.669-.171 1.569 5.114-4.598-3.854zm-7.707-3.807a4.22 4.22 0 00-.407 1.251l-54.909 4.838 38.121-20.923 17.195 14.834zm-.225 3.336a4.306 4.306 0 002.07 2.391l-14.654 60.997-94.348-31.109a1.71 1.71 0 00-.103-1.019l47.378-26.003 59.657-5.257zm-107.224 30.929a1.719 1.719 0 00-1.887-.638l-8.449-19.933 56.961-5.02-46.625 25.591zm-66.924-12.352a4.3 4.3 0 002.352-.697l16.664 15.339-25.269.809 5.785-15.477c.155.017.312.026.468.026zm19.415 15.01l27.47 25.285-55.391 81.14a1.718 1.718 0 00-1.485-.063l-21.675-37.934 25.271-67.6 25.81-.828zm-29.739 106.55a1.709 1.709 0 00-.703 1.554l-38.485 8.056 17.67-47.267 21.518 37.657zm-.623 1.927c.151.453.486.821.918 1.017l-16.833 50.544-41.688 12.026a4.314 4.314 0 00-1.335-1.406l20.215-54.076 38.723-8.105zm-60.922 61.486a4.282 4.282 0 00-1.772.208l-26.61-43.002 48.145-10.076-19.763 52.87zm-3.537 1.343a4.257 4.257 0 00-1.092 3.657l-10.179 4.566-27.143-47.282a2.566 2.566 0 001.113-2.472l10.275-2.149 27.026 43.68zm-39.859-38.619c.398 0 .774-.094 1.11-.254l27.127 47.252-47.159 21.158 18.62-68.174c.1.012.199.018.302.018zm45.191 76.533l16.188 28.197a1.71 1.71 0 00-.631 1.325c0 .036.004.072.006.107l-14.446 2.305-1.117-31.934zm15.626 30.004a1.718 1.718 0 001.202 1.171L112.48 456.91l-3.893-111.307 14.498-2.313zm-7.059 122.902a4.334 4.334 0 00-.044-1.125l.53-.235 102.83-25.064a1.719 1.719 0 002.308.977l36.18 62.008a2.583 2.583 0 00-.912 1.1L119.99 467.58l-3.964-1.388zm145.84 38.716l26.164-3.579 12.579 28.228a4.3 4.3 0 00-.767.77l-38.203-24.402a2.47 2.47 0 00.227-1.017zm43.484 24.282a4.281 4.281 0 00-2.816-.48L290.2 501.033l47.411-6.487-32.261 34.644zm34.039-112.565a1.69 1.69 0 00.281-1.396l45.436-18.73 45.26-3.459c.151.438.371.843.648 1.203l-51.665 55.479-39.96-33.097zm95.046-29.263c-.354 0-.698.044-1.027.124l-5.606-8.587 11.907-4.909-4.527 13.437a4.405 4.405 0 00-.747-.065zm-6.845-8.787l-52.313-80.142 4.424-13.992a1.714 1.714 0 001.316-.286l64.87 71.496-6.019 17.861-12.278 5.063zm19.916-21.14l7.575 8.349a1.696 1.696 0 00-.365 1.611l-12.271 5.057 5.061-15.017zm8.862 7.768c-.375 0-.721.12-1.004.324l-7.718-8.507 36.496-108.305 12.409-4.084c.171.368.467.665.834.836l-40.652 119.776a1.744 1.744 0 00-.365-.04zm40.572-122.535l-8.367-7.1 3.879-11.511 4.866 18.343a1.723 1.723 0 00-.378.268zm-10.091-8.564l-39.802-33.781 37.766-5.074 6.662 25.125-4.626 13.73zm-1.274-38.958l12.644-1.698a4.307 4.307 0 001.655 2.003l-7.957 23.611-6.342-23.916zm12.363-3.776l-12.904 1.735-4.867-18.351 18.17 15.234a4.266 4.266 0 00-.399 1.382zm-13.668 1.838l-39.374 5.291-55.983-47.516a1.712 1.712 0 00.223-1.44l40.723-16.963 49.289 41.323 5.122 19.305zm-52.227-61.538l30.337-12.637a2.584 2.584 0 002.582 1.373l13.255 49.975-46.174-38.711zm30.188-12.985l-30.517 12.711-66.964-56.14-1.715-5.59 28.583-1.824 70.738 48.882a2.538 2.538 0 00-.125 1.961zm-99.827-51.08l-7.282-23.738c.346-.141.654-.355.906-.623l32.812 22.673-26.436 1.689zm-5.942-24.986c.046-.093.086-.188.121-.287l90.485 19.87-57.002 3.639-33.604-23.222zm-4.795-1.837l-31.548-3.835L283.88 5.683l67.82 34.992c-.012.035-.023.07-.033.107zM232.863 78.845l-51.267 4.517a3.823 3.823 0 00-.166-.406L220.975 50.8l11.888 28.044zm-57.767 9.456l-6.086 16.281-27.179.872 32.553-17.767c.213.229.452.434.712.614zm-6.231 16.665l-24.356 65.154-28.804-50.411 25.384-13.853 27.776-.89zm-60.8 3.471c.241 0 .47-.049.679-.139l5.584 9.774-12.358 6.744 5.891-16.392c.067.01.135.013.204.013zm7.304 11.455l28.965 50.692-18.748 50.152L77.07 230.89l-8.36-13.511 32.191-89.591 14.468-7.896zM74.885 231.347l-10.14 2.123a2.584 2.584 0 00-1.257-1.552l4.317-12.012 7.08 11.441zm-50.42 82.033l-20.17 9.047a2.578 2.578 0 00-.856-.502l15.427-79.346 5.598 70.801zM5.157 324.335l19.48-8.739 3.172 40.108-.055.013-23.07-29.895c.297-.419.473-.929.473-1.481v-.006zM256.723 504.59a2.548 2.548 0 00.15 1.186l-10.847 5.998-116.844-40.969 127.541 33.785zm.522 1.853a2.58 2.58 0 003.983.125l36.574 23.361-50.812-17.816 10.255-5.67zm49.904 24.662a4.094 4.094 0 00-.267-.481l34.016-36.529 75.85-10.377c.069.235.17.452.298.653l-28.219 24.358-81.678 22.376zm112.075-50.679c-.729 0-1.387.303-1.855.787l-36.398-30.148 51.695-55.514a4.31 4.31 0 002.528.31l6.037 17.734-21.409 66.904a2.557 2.557 0 00-.598-.073zm17.895-85.433a4.264 4.264 0 001.575-3.937l11.412-5.198-7.8 24.375-5.187-15.24zm.784-5.881a4.242 4.242 0 00-.796-.821l5.178-15.361 12.576-5.185c.18.325.463.584.805.737l-4.698 14.68-13.065 5.95zm18.128-20.514a1.716 1.716 0 002.027-1.369l24.091 1.731-30.71 13.987 4.592-14.349zm43.235-125.951a1.72 1.72 0 00-1.152-.443c-.02 0-.039.002-.06.004l-5.162-19.463 8.971-26.622c.114.009.229.015.346.015l.088-.002 10.249 37.231-13.28 9.28zm5.061-47.065a4.306 4.306 0 001.558-1.502l38.966 14.927a2.555 2.555 0 00.339 1.55l-30.814 21.533-10.049-36.508zm41.343 15.569c.348.32.783.547 1.267.638l-11.653 96.254-20.692-75.175 31.078-21.717zm-.22-3.547l-39.014-14.945a4.291 4.291 0 00-4.751-5.057l-19.262-49.605 63.076 69.554-.049.053zm-45.725-19.246l-.036.025-20.455-17.149-13.533-51.024a2.62 2.62 0 00.398-.215l12.381 13.653 21.245 54.71zm-33.058-68.874a2.555 2.555 0 00.585-1.629 2.575 2.575 0 00-2.581-2.571c-.742 0-1.409.314-1.879.813l-69.947-48.335 57.018-3.64a2.58 2.58 0 002.153 1.368l25.694 66.171-11.043-12.177zm-109.943-77.9c.002-.033.006-.063.006-.096 0-1.42-1.155-2.57-2.581-2.57-.866 0-1.631.426-2.099 1.08L283.604 4.686 445.969 61.18l-89.245-19.596zM245.797 27.917l-34.192-4.155 63.56-19.725-29.368 23.88zm-37.068-2.636a1.712 1.712 0 001.547.277l9.846 23.232-40.023 32.544a4.294 4.294 0 00-2.566-.846 4.298 4.298 0 00-3.493 1.786l-23.841-9.352 58.53-47.64zM173.27 84.222a4.279 4.279 0 00.101 1.63l-36.19 19.748-27.414.878a1.735 1.735 0 00-.161-.516l38.729-31.523 24.935 9.783zm-66.186 23.911l.056.036-6.181 17.201-32.055 17.494 38.18-34.731zm-7.192 20.205l-31.695 88.211-28.921-46.736 23.065-20.982 37.55-20.493zm-61.023 40.816l-2.817-4.552a2.544 2.544 0 00.44-1.662l23.015-12.561-20.639 18.775zm-4.947-3.432c.115 0 .226-.01.337-.025l3.028 4.895-5.378 4.891 1.899-9.769c.04.002.076.008.114.008zm3.775 5.529l29.593 47.823-4.521 12.585a2.577 2.577 0 00-2.122.524l-33.768-30.82 4.79-24.629 6.027-5.483zm-11.481 29.51l-8.885-8.109c.28-.411.442-.906.442-1.438a2.54 2.54 0 00-.442-1.437l13.387-12.178-4.502 23.162zm-7.575 38.968L3.698 316.588 15.154 195.63l3.487 44.099zm7.804 116.794a2.553 2.553 0 00-.635 1.685 2.575 2.575 0 002.859 2.555l23.854 90.72L4.39 327.942l22.055 28.581zm88.88 111.643l128.243 44.966-59.133 32.693a2.578 2.578 0 00-3.422-.613l-66.187-76.433c.185-.188.351-.392.499-.613zm183.829 66.051a4.3 4.3 0 004.105 2.998c1.12 0 2.141-.428 2.908-1.127l27.588 17.839-144.406-6.601 109.805-13.109zm88.703-23.641l74.569-20.428-123.345 62.534 48.776-42.106zm77.296-23.284l-43.352-4.415a2.54 2.54 0 00-.52-1.43l31.951-32.61 12.668 37.21a2.514 2.514 0 00-.747 1.245zm-44.421-6.378a2.631 2.631 0 00-.543-.299l21.251-66.41 11.515 33.823-32.223 32.886zm21.782-70.074l8.063-25.197 35.941-16.369 39.685 2.85c.011.316.111.611.273.861l-71.875 73.358-12.087-35.503zm85.287-40.98l-4.078-17.53 6.562-2.987-2.484 20.517zm-4.562-19.613l-24.374-104.789a1.713 1.713 0 00.841-2.188l13.056-9.122 21.857 79.397-4.038 33.36-7.342 3.342zm11.915-34.76l6.761 24.56a2.559 2.559 0 00-.987 2.018c0 .042.004.082.006.124l-9.54 4.345 3.76-31.047zm.668-5.502l11.161-92.194-3.636 119.526-7.525-27.332zm8.857-104.475l-63.027-69.501-26.047-67.082 89.074 136.583zM208.024 24.872l-58.639 47.73L107.78 56.28a2.525 2.525 0 00-.028-.292l100.272-31.117zM104.947 58.946l2.64 46.133a1.714 1.714 0 00-1.243 1.645c0 .308.083.596.226.845l-40.5 36.839-30.176 16.47 68.2-102.172c.264.126.551.21.853.24zM33.058 165.57l-2.095 10.775-13.731 12.49 15.593-23.36c.076.036.155.069.233.095zm24.01 293.003l50.38 7.005a4.292 4.292 0 004.296 4.501c.933 0 1.797-.297 2.502-.8l65.84 76.031L56.901 459a2.85 2.85 0 00.167-.427zm410.821 26.799l-13.013-38.217 71.111-72.577-57.508 110.92a2.392 2.392 0 00-.59-.126zm60.719-115.806l2.493-20.596 10.783-4.91c.057.046.115.089.176.131l-13.452 25.375z" fill="#fff"/></svg><svg width="76" height="76" fill="none" viewBox="0 0 76 76" id="play-btn" x="168" y="311" xmlns="http://www.w3.org/2000/svg"><circle cx="37.953" cy="37.953" r="36.953" stroke="#fff" stroke-width="2"/><path d="M49.339 37.953l-17.079-9.86v19.72l17.079-9.86z" fill="#fff" fill-opacity=".96"/></svg><svg width="56" height="56" fill="none" viewBox="0 0 56 56" id="play-btn-small" x="308" y="311" xmlns="http://www.w3.org/2000/svg"><circle cx="28" cy="28" r="27" stroke="#fff" stroke-width="2"/><path d="M36.4 28l-12.6-7.275v14.55L36.4 28z" fill="#fff" fill-opacity=".96"/></svg><svg width="10" height="10" fill="none" viewBox="0 0 10 10" id="plus" x="614" y="311" xmlns="http://www.w3.org/2000/svg"><path fill-rule="evenodd" clip-rule="evenodd" d="M5.545 0h-1v4.455H0v1h4.545V10h1V5.455H10v-1H5.545V0z" fill="#fff"/></svg><svg width="10" height="10" fill="none" viewBox="0 0 10 10" id="plus-red" x="624" y="311" xmlns="http://www.w3.org/2000/svg"><path fill-rule="evenodd" clip-rule="evenodd" d="M5.545 0h-1v4.455H0v1h4.545V10h1V5.455H10v-1H5.545V0z" fill="#ff000a"/></svg><svg width="18" height="18" fill="none" viewBox="0 0 18 18" id="search" x="395" y="339" xmlns="http://www.w3.org/2000/svg"><path d="M13.21 11.619a7.264 7.264 0 001.415-4.306A7.32 7.32 0 007.312 0C3.28 0 0 3.28 0 7.313c0 4.032 3.28 7.312 7.312 7.312 1.611 0 3.097-.53 4.307-1.416L16.409 18 18 16.41l-4.79-4.791zm-5.898.756A5.068 5.068 0 012.25 7.313 5.068 5.068 0 017.312 2.25a5.068 5.068 0 015.063 5.063 5.068 5.068 0 01-5.063 5.062z" fill="#25394B"/></svg><svg width="18" height="18" fill="none" viewBox="0 0 18 18" id="search-red" x="413" y="339" xmlns="http://www.w3.org/2000/svg"><path d="M13.21 11.619a7.264 7.264 0 001.415-4.306A7.32 7.32 0 007.312 0C3.28 0 0 3.28 0 7.313c0 4.032 3.28 7.312 7.312 7.312 1.611 0 3.097-.53 4.307-1.416L16.409 18 18 16.41l-4.79-4.791zm-5.898.756A5.068 5.068 0 012.25 7.313 5.068 5.068 0 017.312 2.25a5.068 5.068 0 015.063 5.063 5.068 5.068 0 01-5.063 5.062z" fill="#ff000a"/></svg><svg width="18" height="18" fill="none" viewBox="0 0 18 18" id="search-white" x="431" y="339" xmlns="http://www.w3.org/2000/svg"><path d="M13.21 11.619a7.264 7.264 0 001.415-4.306A7.32 7.32 0 007.312 0C3.28 0 0 3.28 0 7.313c0 4.032 3.28 7.312 7.312 7.312 1.611 0 3.097-.53 4.307-1.416L16.409 18 18 16.41l-4.79-4.791zm-5.898.756A5.068 5.068 0 012.25 7.313 5.068 5.068 0 017.312 2.25a5.068 5.068 0 015.063 5.063 5.068 5.068 0 01-5.063 5.062z" fill="#fff"/></svg><svg width="18" height="16" fill="none" viewBox="0 0 18 16" id="settings" x="544" y="311" xmlns="http://www.w3.org/2000/svg"><path d="M17.425 7.235h-1.248a2.27 2.27 0 00-4.397 0H.574a.574.574 0 100 1.149H11.78a2.27 2.27 0 004.397 0h1.248a.574.574 0 100-1.15zm-3.446 1.7a1.126 1.126 0 110-2.25 1.126 1.126 0 010 2.25zm3.447 3.83h-6.228a2.27 2.27 0 00-4.396 0H.574a.575.575 0 000 1.149h6.228a2.271 2.271 0 004.396 0h6.227a.574.574 0 100-1.149zM9 14.469a1.125 1.125 0 110-2.25 1.125 1.125 0 010 2.25zM.574 2.85h1.249a2.271 2.271 0 004.397 0h11.205a.574.574 0 100-1.148H6.22a2.271 2.271 0 00-4.397 0H.574a.574.574 0 100 1.149zm3.447-1.7a1.126 1.126 0 110 2.252 1.126 1.126 0 010-2.252z" fill="#25394B"/></svg><svg width="6" height="10" viewBox="3 1 6 10" fill="none" id="stock-down" x="634" y="311" xmlns="http://www.w3.org/2000/svg"><path fill-rule="evenodd" clip-rule="evenodd" d="M3 6l3 5 3-5H6.52V1H5.48v5H3z" fill="#FF000A"/></svg><svg width="6" height="10" viewBox="3 1 6 10" fill="none" id="stock-up" x="640" y="311" xmlns="http://www.w3.org/2000/svg"><path fill-rule="evenodd" clip-rule="evenodd" d="M3 6l3-5 3 5H6.52v5H5.48V6H3z" fill="#6FCA2C"/></svg><svg width="21" height="17" fill="none" viewBox="0 0 21 17" id="twitter" x="523" y="311" xmlns="http://www.w3.org/2000/svg"><path fill-rule="evenodd" clip-rule="evenodd" d="M20.034 2.28a8.207 8.207 0 01-2.36.646A4.11 4.11 0 0019.48.653a8.222 8.222 0 01-2.61.996 4.11 4.11 0 00-7.004 3.749 11.665 11.665 0 01-8.471-4.296 4.104 4.104 0 00-.557 2.069c0 1.425.726 2.683 1.829 3.42A4.105 4.105 0 01.804 6.08v.05a4.11 4.11 0 003.298 4.03 4.014 4.014 0 01-1.083.145 4.07 4.07 0 01-.773-.073 4.108 4.108 0 003.838 2.853 8.241 8.241 0 01-5.103 1.76c-.333 0-.66-.019-.981-.057a11.65 11.65 0 006.3 1.845c7.562 0 11.694-6.261 11.694-11.693a13.2 13.2 0 00-.01-.533 8.32 8.32 0 002.05-2.127z" fill="#fff"/></svg><svg width="34" height="28" fill="none" viewBox="0 0 34 28" id="twitter-dark" x="404" y="311" xmlns="http://www.w3.org/2000/svg"><path fill-rule="evenodd" clip-rule="evenodd" d="M28.054 2.437c-1.21-1.375-2.932-2.25-4.838-2.282-3.66-.061-6.629 3.032-6.629 6.908 0 .55.059 1.087.172 1.602-5.509-.358-10.393-3.226-13.662-7.55a7.332 7.332 0 00-.898 3.544c0 2.456 1.17 4.635 2.95 5.922a6.337 6.337 0 01-3.003-.916v.089c0 3.43 2.284 6.307 5.316 6.977a6.242 6.242 0 01-2.993.1c.843 2.813 3.291 4.866 6.192 4.934-2.269 1.883-5.127 3.004-8.232 2.998a12.629 12.629 0 01-1.581-.102c2.933 2.012 6.417 3.184 10.16 3.185 12.192.003 18.86-10.607 18.86-19.81 0-.301-.007-.602-.02-.9a13.632 13.632 0 003.307-3.557A12.65 12.65 0 0129.35 4.62 6.797 6.797 0 0032.263.814a12.764 12.764 0 01-4.21 1.623z" fill="#25394B"/></svg><svg width="34" height="28" fill="none" viewBox="0 0 34 28" id="twitter-light" x="438" y="311" xmlns="http://www.w3.org/2000/svg"><path fill-rule="evenodd" clip-rule="evenodd" d="M28.054 2.437c-1.21-1.375-2.932-2.25-4.838-2.282-3.66-.061-6.629 3.032-6.629 6.908 0 .55.059 1.087.172 1.602-5.509-.358-10.393-3.226-13.662-7.55a7.332 7.332 0 00-.898 3.544c0 2.456 1.17 4.635 2.95 5.922a6.337 6.337 0 01-3.003-.916v.089c0 3.43 2.284 6.307 5.316 6.977a6.242 6.242 0 01-2.993.1c.843 2.813 3.291 4.866 6.192 4.934-2.269 1.883-5.127 3.004-8.232 2.998a12.629 12.629 0 01-1.581-.102c2.933 2.012 6.417 3.184 10.16 3.185 12.192.003 18.86-10.607 18.86-19.81 0-.301-.007-.602-.02-.9a13.632 13.632 0 003.307-3.557A12.65 12.65 0 0129.35 4.62 6.797 6.797 0 0032.263.814a12.764 12.764 0 01-4.21 1.623z" fill="#ededed"/></svg><svg width="16" height="18" fill="none" viewBox="0 0 16 18" id="union" x="449" y="339" xmlns="http://www.w3.org/2000/svg"><path fill-rule="evenodd" clip-rule="evenodd" d="M7.472 13.63V0h.679v13.63l3.547-2.365.377.565L8 14.547a.338.338 0 01-.377 0L3.547 11.83l.377-.565 3.548 2.365zm8.15-3.442v7.472a.34.34 0 01-.339.34H.34a.34.34 0 01-.34-.34v-7.472h.68v7.132h14.263v-7.132h.68z" fill="#172430"/></svg><svg width="16" height="18" fill="none" viewBox="0 0 16 18" id="union-red" x="465" y="339" xmlns="http://www.w3.org/2000/svg"><path fill-rule="evenodd" clip-rule="evenodd" d="M7.472 13.63V0h.68v13.63l3.546-2.365.377.565L8 14.547a.338.338 0 01-.377 0L3.547 11.83l.377-.565 3.548 2.365zm8.15-3.442v7.472a.34.34 0 01-.339.34H.34a.34.34 0 01-.34-.34v-7.472h.68v7.133h14.263v-7.133h.68z" fill="#ff000a"/></svg><svg width="16" height="18" fill="none" viewBox="0 0 16 18" id="union-white" x="481" y="339" xmlns="http://www.w3.org/2000/svg"><path fill-rule="evenodd" clip-rule="evenodd" d="M7.472 13.63V0h.68v13.63l3.546-2.365.377.565L8 14.547a.338.338 0 01-.377 0L3.547 11.83l.377-.565 3.548 2.365zm8.15-3.442v7.472a.34.34 0 01-.339.34H.34a.34.34 0 01-.34-.34v-7.472h.68v7.133h14.263v-7.133h.68z" fill="#fff"/></svg><svg width="23" height="23" fill="none" viewBox="0 0 23 23" id="x-dark" x="500" y="311" xmlns="http://www.w3.org/2000/svg"><path fill-rule="evenodd" clip-rule="evenodd" d="M11.314 12.02l5.303 5.304.707-.707-5.303-5.303 5.303-5.304-.707-.707-5.303 5.304L6.01 5.303l-.707.707 5.304 5.304-5.304 5.303.707.707 5.304-5.303z" fill="#25394B"/></svg><svg width="40" height="28" fill="none" viewBox="0 0 40 28" id="youtube-dark" x="364" y="311" xmlns="http://www.w3.org/2000/svg"><path fill-rule="evenodd" clip-rule="evenodd" d="M38.79 6.762s-.375-2.643-1.525-3.807c-1.458-1.527-3.093-1.534-3.842-1.624C28.057.943 20.007.943 20.007.943h-.017s-8.05 0-13.416.388c-.75.09-2.384.097-3.842 1.624-1.15 1.164-1.524 3.807-1.524 3.807S.824 9.865.824 12.968v2.91c0 3.103.384 6.206.384 6.206s.374 2.643 1.524 3.807c1.458 1.527 3.374 1.478 4.228 1.638 3.068.295 13.038.386 13.038.386s8.059-.012 13.425-.4c.75-.09 2.384-.097 3.842-1.624 1.15-1.164 1.525-3.807 1.525-3.807s.383-3.103.383-6.206v-2.91c0-3.103-.383-6.206-.383-6.206zM16.04 19.403l-.002-10.775L26.4 14.034l-10.36 5.369z" fill="#25394B"/></svg></svg>